<svg width="22" height="29" viewBox="0 0 22 29" fill="none" xmlns="http://www.w3.org/2000/svg">
<path d="M19 9.66659H17.6667V6.99992C17.6667 3.31992 14.68 0.333252 11 0.333252C7.32001 0.333252 4.33334 3.31992 4.33334 6.99992V9.66659H3.00001C1.53334 9.66659 0.333344 10.8666 0.333344 12.3333V25.6666C0.333344 27.1333 1.53334 28.3333 3.00001 28.3333H19C20.4667 28.3333 21.6667 27.1333 21.6667 25.6666V12.3333C21.6667 10.8666 20.4667 9.66659 19 9.66659ZM11 21.6666C9.53334 21.6666 8.33334 20.4666 8.33334 18.9999C8.33334 17.5333 9.53334 16.3333 11 16.3333C12.4667 16.3333 13.6667 17.5333 13.6667 18.9999C13.6667 20.4666 12.4667 21.6666 11 21.6666ZM15.1333 9.66659H6.86667V6.99992C6.86667 4.71992 8.72001 2.86659 11 2.86659C13.28 2.86659 15.1333 4.71992 15.1333 6.99992V9.66659Z" fill="black"/>
</svg>
