<svg width="22" height="29" viewBox="0 0 22 29" fill="none" xmlns="http://www.w3.org/2000/svg">
<path d="M11 21.6666C12.4667 21.6666 13.6667 20.4666 13.6667 18.9999C13.6667 17.5333 12.4667 16.3333 11 16.3333C9.53337 16.3333 8.33337 17.5333 8.33337 18.9999C8.33337 20.4666 9.53337 21.6666 11 21.6666ZM19 9.66659H17.6667V6.99992C17.6667 3.31992 14.68 0.333252 11 0.333252C7.32004 0.333252 4.33337 3.31992 4.33337 6.99992H6.86671C6.86671 4.71992 8.72004 2.86659 11 2.86659C13.28 2.86659 15.1334 4.71992 15.1334 6.99992V9.66659H3.00004C1.53337 9.66659 0.333374 10.8666 0.333374 12.3333V25.6666C0.333374 27.1333 1.53337 28.3333 3.00004 28.3333H19C20.4667 28.3333 21.6667 27.1333 21.6667 25.6666V12.3333C21.6667 10.8666 20.4667 9.66659 19 9.66659ZM19 25.6666H3.00004V12.3333H19V25.6666Z" fill="black"/>
</svg>
